<svg width="200" height="27" viewBox="0 0 200 27" fill="none" xmlns="http://www.w3.org/2000/svg">
<path d="M27.8677 8.10967L25.5097 11.0945L24.4651 10.0796L23.2115 8.82602L22.1369 7.7515C22.1369 7.7515 21.4977 7.11573 21.0624 6.73667C20.6121 6.34453 20.3468 6.13888 19.8685 5.78153C19.4798 5.49121 19.2684 5.31686 18.8537 5.06518C18.3634 4.76769 18.068 4.63294 17.5403 4.40853C16.9501 4.15751 16.6125 4.01883 15.9882 3.87127C15.5742 3.77339 15.3352 3.75022 14.9137 3.69218C14.7275 3.66654 14.6233 3.64996 14.4362 3.63248C13.8791 3.58046 13.5616 3.5932 13.0035 3.63248C12.7697 3.64893 12.6384 3.65911 12.4065 3.69218C11.9809 3.75286 11.7472 3.81957 11.332 3.93096C10.7623 4.08379 10.4403 4.17375 9.89927 4.40853C9.56453 4.55379 9.38379 4.65152 9.06353 4.8264C8.63191 5.06209 8.39079 5.19948 7.98901 5.48305C7.62313 5.74128 7.09357 6.1994 7.09357 6.1994C7.09357 6.1994 6.6036 6.6563 6.31752 6.97545C5.8787 7.46498 5.64607 7.75799 5.30269 8.31861C5.03585 8.75427 4.92018 9.01897 4.70573 9.48268C4.55669 9.80497 4.4693 9.98485 4.34756 10.3184C4.20592 10.7065 4.14604 10.9317 4.04908 11.3332C3.92134 11.8623 3.85822 12.1641 3.81029 12.7063C3.76 13.2752 3.74995 13.6008 3.81029 14.1688C3.86947 14.7258 3.95842 15.0321 4.10877 15.5717C4.26116 16.1185 4.36425 16.4222 4.58634 16.9447C4.79027 17.4244 4.91939 17.689 5.1833 18.1386C5.45501 18.6014 5.62974 18.8492 5.95935 19.2728C6.24353 19.638 6.4135 19.8358 6.73539 20.1682C7.04522 20.4882 7.22508 20.6639 7.57113 20.9443C7.88277 21.1968 8.06878 21.3255 8.40688 21.5412C8.76762 21.7715 8.97733 21.891 9.36201 22.0785C9.68118 22.2341 9.86301 22.3182 10.1978 22.4367C10.5141 22.5487 10.6995 22.5939 11.0224 22.6728L11.0335 22.6755C11.5399 22.7991 11.8275 22.8689 12.3468 22.9142C12.8345 22.9568 13.1128 22.9575 13.6004 22.9142C14.0242 22.8767 14.2605 22.8311 14.6749 22.7352C14.9339 22.6752 15.0776 22.6345 15.3316 22.5561C15.6627 22.4538 15.846 22.3875 16.1673 22.2576C16.6217 22.0739 16.8737 21.9594 17.3016 21.7203C17.7136 21.4901 17.9338 21.3402 18.3164 21.0637C18.6793 20.8013 18.8799 20.6479 19.2118 20.3473C19.4806 20.1039 19.612 19.9471 19.8685 19.6907C20.1249 19.4342 20.2791 19.3004 20.5251 19.034C20.7945 18.7424 20.9293 18.5643 21.1818 18.258C21.4666 17.9124 21.6175 17.7115 21.8981 17.3625C22.2928 16.8716 22.5197 16.601 22.913 16.1089C23.4312 15.4604 23.7095 15.0871 24.2263 14.4374C24.8042 13.7109 25.1189 13.2956 25.7187 12.5869L25.7383 12.5637C26.0251 12.2248 26.1919 12.0277 26.4947 11.6914C26.9031 11.2381 27.1371 10.988 27.5692 10.5572C27.978 10.1497 28.2131 9.9266 28.6438 9.54237L28.6737 9.51567C29.0873 9.14667 29.329 8.93109 29.778 8.58724C30.1631 8.2923 30.385 8.13352 30.7928 7.87089C31.1794 7.62196 31.4028 7.49185 31.8077 7.27393C32.129 7.10099 32.3132 7.0113 32.6434 6.85606C33.0119 6.68285 33.2201 6.58843 33.5985 6.43819C34.2152 6.19336 34.572 6.08203 35.2103 5.90093C35.7869 5.73733 36.1124 5.64656 36.7027 5.54275C37.3493 5.42905 38.3742 5.36366 38.3742 5.36366C38.3742 5.36366 37.9425 5.8773 37.6578 6.1994C36.5007 7.50872 34.494 9.36329 34.494 9.36329L32.2255 11.6317C31.5728 12.2845 31.1937 12.6376 30.554 13.3032C29.9597 13.9218 29.6334 14.2755 29.0616 14.915C28.5273 15.5125 28.2335 15.8528 27.7185 16.4671C26.9138 17.4269 25.7187 18.9743 25.7187 18.9743C25.0935 19.7471 24.7688 20.2027 24.1069 20.9443L24.104 20.9475C23.5239 21.5974 23.1961 21.9646 22.5548 22.5561L22.5495 22.561C21.9318 23.1306 21.5798 23.4553 20.8833 23.9291C20.3907 24.2641 20.0974 24.4281 19.57 24.7051C18.9141 25.0497 18.5333 25.223 17.8388 25.4812C17.1544 25.7356 16.7615 25.8637 16.0479 26.0184C15.4148 26.1557 15.052 26.2038 14.4063 26.2572C13.5467 26.3283 13.058 26.3172 12.1976 26.2572C11.4706 26.2066 11.0606 26.166 10.347 26.0184C9.7433 25.8936 9.40757 25.8014 8.82475 25.6006C8.25169 25.4031 7.93722 25.2685 7.39205 25.0036C7.03559 24.8304 6.84023 24.7235 6.49661 24.526C6.04237 24.265 5.78632 24.1175 5.36239 23.8097C4.78739 23.3922 4.49605 23.1139 3.98938 22.6158C3.32946 21.9669 2.97658 21.577 2.43729 20.8249C1.93173 20.1198 1.68326 19.6945 1.30307 18.9146C0.940728 18.1714 0.760127 17.738 0.527021 16.9447C0.342034 16.3151 0.271635 15.9511 0.168846 15.303C0.109962 14.9318 0.0814278 14.7224 0.0494545 14.3479C-0.0199468 13.5349 -0.0129296 13.0721 0.0494545 12.2585C0.100751 11.5896 0.148596 11.2134 0.288238 10.5572C0.414208 9.96522 0.507782 9.63662 0.706109 9.06481C0.90473 8.49214 1.03733 8.17688 1.30307 7.63211C1.64664 6.92777 1.87621 6.54826 2.3179 5.90093C2.87813 5.07984 3.22745 4.63446 3.92969 3.93096C4.43168 3.42807 4.73707 3.16713 5.30269 2.73704C5.83797 2.33003 6.15213 2.11654 6.73539 1.78191C7.23276 1.49656 7.5236 1.35564 8.0487 1.12526C8.66337 0.85557 9.01697 0.719154 9.66049 0.528298C10.2569 0.351421 10.5976 0.263872 11.2126 0.170122C11.7532 0.0877033 12.0677 0.0746683 12.6021 0.0525212L12.6453 0.0507308C13.2043 0.0275187 13.5191 0.0249473 14.078 0.0507308C14.8984 0.0885764 15.36 0.139102 16.1673 0.289514C16.7566 0.399287 17.0861 0.47383 17.6597 0.647689C18.5007 0.902603 18.9551 1.10673 19.7491 1.48343C20.4938 1.83674 20.9021 2.05923 21.5997 2.49826C22.2786 2.92554 22.6397 3.19746 23.2711 3.69218C24.1033 4.34409 24.5305 4.75917 25.3008 5.48305C26.346 6.46524 27.8677 8.10967 27.8677 8.10967Z" fill="#0094B0"/>
<path d="M28.5244 16.6577C29.8377 15.1056 30.1064 14.8668 31.1809 13.7028C33.1807 15.5533 38.0758 24.8061 45.2691 22.7168C46.3436 23.7018 46.8212 24.1495 47.9853 25.2539C37.9265 29.0744 32.2853 21.3737 28.5244 16.6577Z" fill="#0094B0"/>
<path d="M54.1936 25.821H49.6567L41.7769 18.2993H46.5525L54.1936 25.821Z" fill="#0094B0"/>
<path d="M52.0744 22.5974L49.1791 19.7619C49.1791 19.7619 49.4614 19.4605 49.6269 19.2544C49.8839 18.9342 50.0098 18.7393 50.2238 18.3888C50.5498 17.855 50.7479 17.5759 50.9803 16.9952C51.1938 16.4617 51.2675 16.1973 51.4188 15.6552L51.428 15.6222C51.5283 15.2627 51.5606 14.9655 51.6267 14.5982C51.7815 13.7371 51.7434 13.2923 51.6696 12.4312L51.6668 12.3986C51.6407 12.0946 51.5921 11.8537 51.5371 11.5537C51.454 11.1001 51.3618 10.8545 51.2088 10.4194C51.0666 10.0151 50.9726 9.79282 50.7909 9.40462C50.6009 8.99846 50.4888 8.77161 50.2537 8.38979C50.0604 8.07593 49.9405 7.90636 49.7164 7.61374C49.435 7.24639 49.2676 7.04551 48.9403 6.7183C48.6131 6.39109 48.4065 6.23102 48.0449 5.94226L48.0368 5.93576C47.7686 5.72158 47.6152 5.59911 47.3286 5.40499C46.9478 5.14719 46.7215 5.02043 46.3137 4.80804C45.8603 4.57185 45.5987 4.44987 45.1198 4.27077C44.5739 4.06662 44.2553 3.98283 43.6871 3.8529C43.1454 3.72901 42.8369 3.67301 42.2843 3.61412C41.3454 3.51406 40.8058 3.51725 39.8666 3.61412C39.1116 3.69199 38.6967 3.80528 37.9563 3.97229C37.4875 4.07805 37.2247 4.13938 36.7624 4.27077C36.3865 4.37761 36.1787 4.44784 35.8073 4.56925C35.3973 4.70325 35.1665 4.77635 34.7626 4.92743C34.3023 5.09955 34.048 5.20648 33.5985 5.40499C33.1502 5.603 32.9003 5.71841 32.4643 5.94226C31.9164 6.22356 31.6163 6.39622 31.0913 6.7183C30.4189 7.13082 29.4198 7.85252 29.4198 7.85252C29.4198 7.85252 30.2311 6.77639 30.7928 6.12134C31.3298 5.49514 31.6329 5.14309 32.2255 4.56925C32.7596 4.05206 33.078 3.78047 33.6582 3.31564C34.1786 2.89876 34.4709 2.66225 35.0312 2.30081C35.505 1.99515 35.7821 1.83989 36.2848 1.58446C36.9739 1.23432 37.3765 1.06517 38.1055 0.808412C38.7353 0.586619 39.0949 0.473356 39.7472 0.330845C40.3463 0.199949 40.689 0.152461 41.2993 0.0920619C42.4128 -0.0181469 43.0505 -0.0119843 44.1647 0.0920619C44.539 0.127014 44.7489 0.150152 45.1198 0.211454C45.806 0.324871 46.1877 0.420274 46.851 0.629325C47.5199 0.840129 47.8892 0.984584 48.5225 1.28598C49.2013 1.60907 49.5693 1.82275 50.194 2.24111C50.9381 2.73952 51.3369 3.05545 51.9848 3.67381C52.5941 4.25526 52.9107 4.61304 53.4175 5.2856C53.8846 5.90533 54.1253 6.27324 54.4921 6.95709C54.9913 7.88795 55.2184 8.44818 55.5069 9.46431C55.7467 10.3088 55.8329 10.8 55.9248 11.6731C56.0418 12.7859 55.9956 13.4217 55.9248 14.5385C55.9063 14.8302 55.9005 14.9945 55.8651 15.2847C55.7856 15.936 55.6864 16.2952 55.5069 16.9263C55.3172 17.593 55.1921 17.9647 54.9099 18.5978C54.5956 19.3031 54.3732 19.68 53.9548 20.329C53.6112 20.862 53.4112 21.1598 52.9997 21.6423C52.6627 22.0374 52.0744 22.5974 52.0744 22.5974Z" fill="#0094B0"/>
<path d="M50.5922 14.697C50.5922 14.697 50.609 13.1151 50.4728 12.2196C50.2638 10.8466 49.6975 9.86153 49.6975 9.86153" stroke="#0094B0" stroke-width="0.417871"/>
<path d="M48.142 8.05619C48.3142 7.91903 48.3439 7.9048 48.5161 7.7677C44.3676 3.25913 41.3518 4.79228 41.3518 4.79228C41.3518 4.79228 44.8179 4.08619 48.142 8.05619Z" fill="#0094B0"/>
<circle cx="0.596959" cy="0.596959" r="0.596959" transform="matrix(-0.992813 -0.119676 -0.119676 0.992813 49.6817 8.33299)" fill="#0094B0"/>
<line x1="8.02991" y1="13.1448" x2="11.8504" y2="13.1448" stroke="#0094B0" stroke-width="0.358175"/>
<line x1="15.4323" y1="13.1448" x2="19.2528" y2="13.1448" stroke="#0094B0" stroke-width="0.358175"/>
<path d="M8.02987 13.1448C8.02987 13.8371 7.46861 14.3984 6.77626 14.3984C6.08391 14.3984 5.52264 13.8371 5.52264 13.1448C5.52264 12.4524 6.08391 11.8912 6.77626 11.8912C7.46861 11.8912 8.02987 12.4524 8.02987 13.1448ZM5.89873 13.1448C5.89873 13.6294 6.29161 14.0223 6.77626 14.0223C7.2609 14.0223 7.65379 13.6294 7.65379 13.1448C7.65379 12.6601 7.2609 12.2673 6.77626 12.2673C6.29161 12.2673 5.89873 12.6601 5.89873 13.1448Z" fill="#0094B0"/>
<path d="M14.895 13.1448C14.895 13.8371 14.3338 14.3984 13.6414 14.3984C12.9491 14.3984 12.3878 13.8371 12.3878 13.1448C12.3878 12.4524 12.9491 11.8912 13.6414 11.8912C14.3338 11.8912 14.895 12.4524 14.895 13.1448ZM12.7639 13.1448C12.7639 13.6294 13.1568 14.0223 13.6414 14.0223C14.1261 14.0223 14.519 13.6294 14.519 13.1448C14.519 12.6601 14.1261 12.2673 13.6414 12.2673C13.1568 12.2673 12.7639 12.6601 12.7639 13.1448Z" fill="#0094B0"/>
<path d="M21.76 13.1448C21.76 13.8371 21.1988 14.3984 20.5064 14.3984C19.8141 14.3984 19.2528 13.8371 19.2528 13.1448C19.2528 12.4524 19.8141 11.8912 20.5064 11.8912C21.1988 11.8912 21.76 12.4524 21.76 13.1448ZM19.6289 13.1448C19.6289 13.6294 20.0218 14.0223 20.5064 14.0223C20.9911 14.0223 21.3839 13.6294 21.3839 13.1448C21.3839 12.6601 20.9911 12.2673 20.5064 12.2673C20.0218 12.2673 19.6289 12.6601 19.6289 13.1448Z" fill="#0094B0"/>
<path d="M64.4676 10.9183C64.4676 10.2442 64.6549 9.80664 65.0294 9.60559C65.4078 9.40061 65.8947 9.29812 66.4899 9.29812H71.0193C71.6185 9.29812 72.1073 9.40061 72.4857 9.60559C72.8641 9.80664 73.0533 10.2442 73.0533 10.9183V16.0508C73.0533 16.7525 72.872 17.2097 72.5093 17.4226C72.1506 17.6355 71.6539 17.7419 71.0193 17.7419H66.4899C65.8552 17.7419 65.3585 17.6355 64.9998 17.4226C64.645 17.2058 64.4676 16.7485 64.4676 16.0508V10.9183ZM66.0287 10.7409V16.2991H71.4923V10.7409H66.0287ZM84.2228 9.3809L79.6639 13.319V13.2244L85.0921 17.6591H82.6204L77.6653 13.5555H77.9905V17.6591H76.4295V9.3809H77.9905V13.319H77.6298L82.1001 9.3809H84.2228ZM87.3321 10.9183C87.3321 10.2442 87.5193 9.80664 87.8938 9.60559C88.2722 9.40061 88.7591 9.29812 89.3543 9.29812H93.8837C94.4829 9.29812 94.9717 9.40061 95.3501 9.60559C95.7286 9.80664 95.9178 10.2442 95.9178 10.9183V16.0508C95.9178 16.7525 95.7364 17.2097 95.3738 17.4226C95.0151 17.6355 94.5184 17.7419 93.8837 17.7419H89.3543C88.7197 17.7419 88.223 17.6355 87.8643 17.4226C87.5095 17.2058 87.3321 16.7485 87.3321 16.0508V10.9183ZM88.8931 10.7409V16.2991H94.3567V10.7409H88.8931ZM92.8785 19.3266L91.1164 14.9273L92.2162 14.4424L94.475 19.3266H92.8785ZM108.473 15.5068L109.964 15.1993V16.2991H114.919V14.1941H110.673C110.362 14.1941 110.08 14.1704 109.828 14.1231C109.579 14.0758 109.366 13.9911 109.189 13.8689C109.015 13.7427 108.881 13.5693 108.787 13.3485C108.696 13.1238 108.651 12.838 108.651 12.4911V10.9183C108.651 10.5793 108.7 10.3053 108.799 10.0964C108.897 9.88351 109.035 9.71794 109.213 9.59968C109.39 9.48142 109.603 9.40258 109.851 9.36316C110.1 9.3198 110.373 9.29812 110.673 9.29812H114.256C114.56 9.29812 114.836 9.3198 115.084 9.36316C115.333 9.40258 115.545 9.48142 115.723 9.59968C115.904 9.71794 116.044 9.88351 116.143 10.0964C116.241 10.3053 116.29 10.5793 116.29 10.9183V11.5096L114.8 11.8052V10.7409H110.141V12.7513H114.375C114.678 12.7513 114.954 12.773 115.202 12.8164C115.451 12.8558 115.664 12.9346 115.841 13.0529C116.022 13.1711 116.162 13.3367 116.261 13.5496C116.359 13.7585 116.409 14.0325 116.409 14.3715V16.0508C116.409 16.7485 116.227 17.2058 115.865 17.4226C115.506 17.6355 115.009 17.7419 114.375 17.7419H110.496C110.184 17.7419 109.902 17.7183 109.65 17.6709C109.402 17.6276 109.189 17.5448 109.012 17.4226C108.838 17.2965 108.704 17.123 108.609 16.9023C108.519 16.6815 108.473 16.3977 108.473 16.0508V15.5068ZM119.399 10.9183C119.399 10.2442 119.586 9.80664 119.96 9.60559C120.339 9.40061 120.826 9.29812 121.421 9.29812H125.95C126.549 9.29812 127.038 9.40061 127.417 9.60559C127.795 9.80664 127.984 10.2442 127.984 10.9183V16.0508C127.984 16.7525 127.803 17.2097 127.44 17.4226C127.082 17.6355 126.585 17.7419 125.95 17.7419H121.421C120.786 17.7419 120.29 17.6355 119.931 17.4226C119.576 17.2058 119.399 16.7485 119.399 16.0508V10.9183ZM120.96 10.7409V16.2991H126.423V10.7409H120.96ZM131.36 17.6591V9.3809H132.922V16.2163H138.291V17.6591H131.36ZM140.804 9.3809H142.365V16.24H147.084V9.3809H148.645V16.0508C148.645 16.7485 148.464 17.2058 148.101 17.4226C147.742 17.6355 147.245 17.7419 146.611 17.7419H142.826C142.515 17.7419 142.233 17.7183 141.981 17.6709C141.733 17.6276 141.52 17.5448 141.342 17.4226C141.169 17.2965 141.035 17.123 140.94 16.9023C140.85 16.6815 140.804 16.3977 140.804 16.0508V9.3809ZM154.323 17.6591V10.8237H151.036V9.3809H159.172V10.8237H155.884V17.6591H154.323ZM161.655 17.6591V9.3809H163.216V17.6591H161.655ZM166.587 10.9183C166.587 10.2442 166.775 9.80664 167.149 9.60559C167.527 9.40061 168.014 9.29812 168.61 9.29812H173.139C173.738 9.29812 174.227 9.40061 174.605 9.60559C174.984 9.80664 175.173 10.2442 175.173 10.9183V16.0508C175.173 16.7525 174.992 17.2097 174.629 17.4226C174.27 17.6355 173.774 17.7419 173.139 17.7419H168.61C167.975 17.7419 167.478 17.6355 167.119 17.4226C166.765 17.2058 166.587 16.7485 166.587 16.0508V10.9183ZM168.148 10.7409V16.2991H173.612V10.7409H168.148ZM178.549 17.6591V9.3809H179.755L185.562 15.1993V9.3809H187.005V17.6591H185.798L179.992 11.8762V17.6591H178.549ZM190.08 15.5068L191.57 15.1993V16.2991H196.525V14.1941H192.28C191.968 14.1941 191.686 14.1704 191.434 14.1231C191.186 14.0758 190.973 13.9911 190.795 13.8689C190.622 13.7427 190.488 13.5693 190.393 13.3485C190.303 13.1238 190.257 12.838 190.257 12.4911V10.9183C190.257 10.5793 190.307 10.3053 190.405 10.0964C190.504 9.88351 190.642 9.71794 190.819 9.59968C190.996 9.48142 191.209 9.40258 191.458 9.36316C191.706 9.3198 191.98 9.29812 192.28 9.29812H195.863C196.166 9.29812 196.442 9.3198 196.691 9.36316C196.939 9.40258 197.152 9.48142 197.329 9.59968C197.511 9.71794 197.651 9.88351 197.749 10.0964C197.848 10.3053 197.897 10.5793 197.897 10.9183V11.5096L196.407 11.8052V10.7409H191.747V12.7513H195.981C196.285 12.7513 196.561 12.773 196.809 12.8164C197.057 12.8558 197.27 12.9346 197.448 13.0529C197.629 13.1711 197.769 13.3367 197.867 13.5496C197.966 13.7585 198.015 14.0325 198.015 14.3715V16.0508C198.015 16.7485 197.834 17.2058 197.471 17.4226C197.113 17.6355 196.616 17.7419 195.981 17.7419H192.102C191.791 17.7419 191.509 17.7183 191.257 17.6709C191.008 17.6276 190.795 17.5448 190.618 17.4226C190.445 17.2965 190.311 17.123 190.216 16.9023C190.125 16.6815 190.08 16.3977 190.08 16.0508V15.5068Z" fill="#0094B0"/>
</svg>
