<svg width="170" height="170" viewBox="0 0 170 170" fill="none" xmlns="http://www.w3.org/2000/svg">
<g clip-path="url(#clip0_982_533)">
<path d="M66.9332 64.9399C69.2927 64.6104 71.5209 63.6547 73.3858 62.1721C75.2508 60.6895 76.6844 58.7342 77.5374 56.5097L92.6559 17.0745C92.9319 16.4037 93.4191 15.8413 94.0436 15.4725C94.6681 15.1038 95.3959 14.9488 96.1165 15.0311C96.8372 15.1134 97.5112 15.4285 98.0365 15.9286C98.5618 16.4287 98.9097 17.0865 99.0272 17.8022L104.87 59.6317C105.2 61.9904 106.154 64.2179 107.636 66.0826C109.117 67.9473 111.071 69.3812 113.294 70.2352L152.729 85.3537C153.403 85.628 153.968 86.1151 154.339 86.7407C154.71 87.3664 154.867 88.0963 154.784 88.819C154.702 89.5417 154.385 90.2175 153.882 90.7434C153.38 91.2693 152.719 91.6164 152.001 91.7316L110.173 97.5616C107.813 97.8911 105.585 98.8469 103.72 100.329C101.855 101.812 100.422 103.767 99.5686 105.992L84.4567 145.428C84.1842 146.105 83.6971 146.673 83.0703 147.046C82.4435 147.42 81.7116 147.577 80.9868 147.494C80.262 147.411 79.5843 147.093 79.0578 146.588C78.5313 146.083 78.1851 145.419 78.0721 144.699L72.2422 102.871C71.9127 100.511 70.9569 98.2829 69.4743 96.418C67.9917 94.553 66.0365 93.1194 63.812 92.2663L24.3767 77.1478C23.703 76.8736 23.1375 76.3865 22.7665 75.7608C22.3955 75.1351 22.2394 74.4053 22.3219 73.6826C22.4045 72.9599 22.7212 72.284 23.2237 71.7581C23.7262 71.2323 24.387 70.8852 25.1052 70.7699L66.9332 64.9399Z" stroke="#00B4D7" stroke-opacity="0.1" stroke-width="13.3321" stroke-linecap="round" stroke-linejoin="round"/>
<path d="M142.109 141.043L115.617 138.017" stroke="#00B4D7" stroke-opacity="0.1" stroke-width="13.3321" stroke-linecap="round" stroke-linejoin="round"/>
<path d="M127.349 152.776L130.375 126.284" stroke="#00B4D7" stroke-opacity="0.1" stroke-width="13.3321" stroke-linecap="round" stroke-linejoin="round"/>
<path d="M61.4906 24.4844L48.2446 22.9714" stroke="#00B4D7" stroke-opacity="0.1" stroke-width="13.3321" stroke-linecap="round" stroke-linejoin="round"/>
<path d="M54.1104 30.3509L55.6234 17.105" stroke="#00B4D7" stroke-opacity="0.1" stroke-width="13.3321" stroke-linecap="round" stroke-linejoin="round"/>
</g>
<defs>
<clipPath id="clip0_982_533">
<rect width="159.985" height="159.985" fill="white" transform="translate(177.107 10.8525) rotate(96.516)"/>
</clipPath>
</defs>
</svg>
